<?xml version="1.0" standalone="no"?><!DOCTYPE svg PUBLIC "-//W3C//DTD SVG 1.1//EN" "http://www.w3.org/Graphics/SVG/1.1/DTD/svg11.dtd"><svg t="1732065066350" class="icon" viewBox="0 0 1024 1024" version="1.1" xmlns="http://www.w3.org/2000/svg" p-id="8918" xmlns:xlink="http://www.w3.org/1999/xlink" width="200" height="200"><path d="M145.81784 777.456h721.84l88.744 142.016c35.504 57.184 9.856 104.528-57.184 104.528H108.34584c-69.032 0-92.688-45.384-55.224-102.56l92.696-143.984z" fill="#DAE9FF" p-id="8919"></path><path d="M1007.68184 481.624L575.76184 55.632c-9.856-9.864-65.08-15.784-76.912-15.784-11.832 0 7.888 21.696-1.976 29.584L49.17784 511.208c-29.584 27.608-7.888 78.888 33.528 78.888h74.944c25.64 0 27.616 19.72 27.616 45.36l-17.752 285.976c0 25.64 57.2 33.528 82.832 33.528h575.888c25.64 0 63.112-31.56 63.112-57.2V635.464c0-25.64 3.952-67.064 27.608-67.064h59.168c43.384 0 63.112-59.16 31.56-86.776z" fill="#DAE9FF" p-id="8920"></path><path d="M974.15384 493.464L528.43384 53.656c-9.856-9.864-21.696-15.784-33.528-15.784-11.832 0-23.664 3.944-33.528 13.808L13.68184 493.464c-29.584 27.616-7.888 78.888 33.52 78.888h74.944c25.64 0 27.616 19.72 27.616 45.36v289.912c0 25.64 37.472 45.36 63.112 45.36h172.464V743.792c0-56.952 43.056-103.128 96.144-103.128h63.72c53.088 0 96.144 46.168 96.144 103.128v209.104l-0.008 0.096h147.44c25.64 0 63.112-19.72 63.112-45.36v-289.92c0-25.64 3.944-45.36 27.608-45.36h59.168c45.344 0 67.048-51.288 35.488-78.888z" fill="#3889FF" p-id="8921"></path><path d="M670.67384 743.792c0-56.952-43.056-103.128-96.144-103.128h-63.72c-53.088 0-96.144 46.168-96.144 103.128v209.104l0.008 0.096h255.984l0.008-0.096V743.792z" fill="#DAE9FF" p-id="8922"></path><path d="M641.33784 743.792c0-56.952-43.056-103.128-96.144-103.128h-63.72c-53.088 0-96.144 46.168-96.144 103.128V952.992h255.992l0.008-0.096V743.792z" fill="#FFFFFF" p-id="8923"></path></svg>