<?xml version="1.0" standalone="no"?><!DOCTYPE svg PUBLIC "-//W3C//DTD SVG 1.1//EN" "http://www.w3.org/Graphics/SVG/1.1/DTD/svg11.dtd"><svg t="1733294637906" class="icon" viewBox="0 0 1024 1024" version="1.1" xmlns="http://www.w3.org/2000/svg" p-id="5121" xmlns:xlink="http://www.w3.org/1999/xlink" width="200" height="200"><path d="M857.6 800c64-76.8 102.4-179.2 102.4-288s-38.4-211.2-102.4-288l-6.4-6.4-6.4-6.4s0-6.4-6.4-6.4l-6.4-6.4-6.4-6.4-6.4-6.4C736 108.8 627.2 64 512 64s-224 44.8-307.2 121.6l-6.4 6.4-6.4 6.4s-6.4 6.4-6.4 12.8c0 0 0 6.4-6.4 6.4l-6.4 6.4v6.4C102.4 300.8 64 403.2 64 512s38.4 211.2 102.4 288v6.4l6.4 6.4s0 6.4 6.4 6.4c0 6.4 6.4 6.4 12.8 12.8 0 0 0 6.4 6.4 6.4 6.4 6.4 6.4 6.4 12.8 6.4C288 915.2 396.8 960 512 960s224-44.8 307.2-121.6c6.4 0 6.4-6.4 12.8-6.4 0 0 6.4 0 6.4-6.4 6.4-6.4 6.4-6.4 6.4-12.8 0 0 0-6.4 6.4-6.4-6.4 0 0 0 6.4-6.4-6.4 6.4-6.4 6.4 0 0-6.4 6.4-6.4 0 0 0z m0-140.8c-12.8 32-32 64-51.2 89.6-25.6-19.2-51.2-38.4-83.2-57.6 12.8-44.8 19.2-96 19.2-153.6h140.8c0 44.8-6.4 83.2-25.6 121.6z m32-172.8h-140.8c0-51.2-6.4-108.8-19.2-153.6 32-12.8 57.6-32 83.2-57.6 19.2 25.6 38.4 57.6 51.2 89.6 12.8 38.4 19.2 76.8 25.6 121.6z m-230.4-320c38.4 19.2 76.8 38.4 108.8 70.4-19.2 12.8-38.4 32-57.6 44.8-12.8-44.8-38.4-83.2-57.6-115.2 0-6.4 0 0 6.4 0zM569.6 864c-6.4 6.4-19.2 12.8-25.6 19.2v-185.6c38.4 0 76.8 12.8 115.2 25.6-6.4 25.6-19.2 44.8-32 70.4-19.2 32-38.4 57.6-57.6 70.4z m57.6-633.6c12.8 25.6 19.2 44.8 25.6 70.4-32 12.8-70.4 25.6-115.2 25.6V140.8c6.4 6.4 19.2 6.4 25.6 19.2 25.6 12.8 44.8 38.4 64 70.4zM537.6 640V537.6h147.2c0 44.8-6.4 89.6-19.2 128-38.4-12.8-76.8-19.2-128-25.6z m0-153.6V384c44.8 0 89.6-12.8 128-25.6 6.4 38.4 12.8 83.2 19.2 128H537.6z m-51.2 51.2V640c-44.8 0-89.6 12.8-128 25.6-6.4-38.4-12.8-83.2-19.2-128h147.2z m-147.2-51.2c0-44.8 6.4-89.6 19.2-128 38.4 12.8 83.2 25.6 128 25.6v102.4H339.2z m147.2 211.2v185.6c-6.4-6.4-19.2-6.4-25.6-19.2-19.2-19.2-44.8-44.8-57.6-76.8-19.2-19.2-25.6-38.4-32-64 32-12.8 70.4-25.6 115.2-25.6z m0-371.2c-38.4 0-76.8-12.8-115.2-25.6 6.4-25.6 12.8-44.8 25.6-70.4 19.2-32 38.4-57.6 57.6-76.8 6.4-6.4 19.2-12.8 25.6-19.2l6.4 192zM364.8 166.4c6.4 0 6.4 0 12.8-6.4-25.6 32-44.8 70.4-57.6 115.2-25.6-12.8-44.8-25.6-64-38.4 32-32 70.4-57.6 108.8-70.4zM166.4 364.8c12.8-32 32-64 51.2-89.6 25.6 19.2 51.2 38.4 83.2 57.6-12.8 44.8-19.2 96-19.2 153.6H134.4c6.4-44.8 12.8-83.2 32-121.6z m-32 172.8h140.8c0 51.2 6.4 108.8 19.2 153.6-32 12.8-57.6 32-83.2 57.6-19.2-25.6-38.4-57.6-51.2-89.6-12.8-38.4-19.2-76.8-25.6-121.6z m230.4 320c-38.4-19.2-76.8-38.4-108.8-70.4 19.2-12.8 38.4-32 57.6-44.8 12.8 44.8 38.4 83.2 57.6 115.2 0 6.4 0 0-6.4 0z m294.4 0c-6.4 0-6.4 0-12.8 6.4 25.6-32 44.8-70.4 57.6-115.2 19.2 12.8 38.4 25.6 57.6 44.8-25.6 25.6-64 51.2-102.4 64z" fill="#ffffff" p-id="5122"></path></svg>